<svg xmlns="http://www.w3.org/2000/svg" width="512" height="512" viewBox="0 0 512 512">
  <defs>
    <linearGradient id="bg" x1="0" y1="0" x2="1" y2="1">
      <stop offset="0%" stop-color="#2a7de1"/>
      <stop offset="100%" stop-color="#10b981"/>
    </linearGradient>
  </defs>
  <rect width="512" height="512" fill="url(#bg)"/>
  <g transform="translate(32 32) scale(0.875)">
    <path d="M140 60 h232 a12 12 0 0 1 12 12 v368 l-40 -26 -40 26 -40 -26 -40 26 -40 -26 -40 26 -40 -26 v-342 a12 12 0 0 1 12 -12 z"
          fill="#ffffff" opacity="0.96"/>
    <rect x="176" y="150" width="160" height="22" rx="11" fill="#2a7de1"/>
    <rect x="176" y="212" width="120" height="22" rx="11" fill="#94a3b8"/>
    <rect x="176" y="274" width="140" height="22" rx="11" fill="#94a3b8"/>
    <path d="M256 96 v330" stroke="#2a7de1" stroke-width="14" stroke-dasharray="26 22" stroke-linecap="round" opacity="0.85"/>
  </g>
</svg>